<?xml version="1.0" standalone="no"?>
<!DOCTYPE svg PUBLIC "-//W3C//DTD SVG 20010904//EN"
 "http://www.w3.org/TR/2001/REC-SVG-20010904/DTD/svg10.dtd">
<svg version="1.0" xmlns="http://www.w3.org/2000/svg"
 width="877.000000pt" height="877.000000pt" viewBox="0 0 877.000000 877.000000"
 preserveAspectRatio="xMidYMid meet">
<metadata>
Created by potrace 1.14, written by Peter Selinger 2001-2017
</metadata>
<g transform="translate(0.000000,877.000000) scale(0.100000,-0.100000)"
fill="#000000" stroke="none">
<path d="M4129 8766 c-2 -2 -47 -7 -100 -10 -52 -4 -106 -8 -120 -11 -13 -2
-49 -6 -79 -9 -225 -25 -660 -124 -840 -191 -19 -7 -87 -32 -150 -56 -1013
-372 -1883 -1158 -2379 -2146 -39 -78 -71 -144 -71 -147 0 -2 -15 -38 -34 -78
-33 -72 -107 -267 -151 -403 -81 -246 -147 -557 -182 -860 -19 -165 -25 -677
-10 -840 82 -889 406 -1695 957 -2380 278 -345 600 -640 990 -905 198 -135
540 -315 780 -412 319 -128 762 -247 1020 -274 25 -2 72 -9 105 -14 119 -18
265 -25 510 -25 215 0 468 10 485 20 3 1 34 6 70 9 354 36 785 152 1184 319
160 67 470 232 645 344 133 86 238 162 386 280 85 68 231 201 336 305 636 633
1061 1442 1219 2318 51 287 65 452 65 790 0 218 -10 463 -20 480 -1 3 -6 32
-9 65 -33 317 -138 722 -279 1080 -165 419 -433 862 -731 1210 -124 145 -318
342 -428 436 -34 30 -67 59 -73 65 -18 20 -208 168 -295 230 -358 256 -774
466 -1187 598 -222 72 -400 117 -553 142 -25 5 -47 8 -50 9 -39 8 -84 16 -125
21 -27 3 -57 7 -65 9 -8 2 -46 6 -85 10 -38 4 -86 9 -105 12 -42 6 -625 14
-631 9z"/>
</g>
</svg>
